<svg xmlns="http://www.w3.org/2000/svg" xmlns:xlink="http://www.w3.org/1999/xlink" width="290" height="290" viewBox="0 0 290 290"><defs><clipPath id="a"><rect x="-5" y="26.3" width="300" height="242.74" fill="none"/></clipPath></defs><title>large-logo</title><g clip-path="url(#a)"><path d="M49.66,26.3V58.64H67.59V82.5H49.66v30.11c0,3.62.34,6,1.05,7.19q1.59,2.72,5.6,2.72a35.63,35.63,0,0,0,10.09-2.08l2.4,22.49a106.12,106.12,0,0,1-22.57,2.64q-12.16,0-17.93-3.11A19,19,0,0,1,19.78,133Q17,126.62,17,112.39V82.5H5V58.64H17V43Z" fill="#f04a45"/><path d="M176.67,109.23H111.36q.89,7.84,4.24,11.69a15.43,15.43,0,0,0,12.33,5.52,18.46,18.46,0,0,0,9.13-2.4,21.43,21.43,0,0,0,5.67-5.36l32.09,3q-7.37,12.81-17.77,18.37t-29.85,5.57q-16.89,0-26.58-4.76a39,39,0,0,1-16-15.12q-6.37-10.36-6.37-24.38Q78.21,81.4,91,69.07t35.25-12.33q18.26,0,28.81,5.52a37.3,37.3,0,0,1,16.09,16q5.52,10.49,5.53,27.29v3.67ZM143.53,93.62q-1-9.45-5.08-13.53a15.92,15.92,0,0,0-23.24,2.08q-3,3.84-3.77,11.44h32.09Z" fill="#f04a45"/><path d="M186.15,101.39q0-19.45,13.13-32.06t35.45-12.61q25.53,0,38.58,14.8,10.49,11.94,10.48,29.37,0,19.62-13,32.13t-36,12.53q-20.49,0-33.13-10.41Q186.16,122.29,186.15,101.39Zm32.66-.09q0,11.37,4.6,16.81a15.08,15.08,0,0,0,23.13.09q4.53-5.37,4.53-17.21,0-11-4.57-16.44a14.2,14.2,0,0,0-11.28-5.4,14.75,14.75,0,0,0-11.76,5.48C220.35,88.27,218.81,93.84,218.81,101.3Z" fill="#f04a45"/></g><g style="isolation:isolate"><text transform="translate(6.16 210.17)" font-size="67.49" fill="#f04a45" font-family="Arial-Black, Arial" font-weight="800" letter-spacing="0.01em" style="isolation:isolate">W</text><text transform="translate(75.22 210.17)" font-size="67.49" fill="#f04a45" font-family="Arial-Black, Arial" font-weight="800" style="isolation:isolate">i</text><text transform="translate(97.01 210.17)" font-size="67.49" fill="#f04a45" font-family="Arial-Black, Arial" font-weight="800" style="isolation:isolate">nk</text><text transform="translate(185.83 210.17)" font-size="67.49" fill="#f04a45" font-family="Arial-Black, Arial" font-weight="800" style="isolation:isolate">l</text><text transform="translate(207.64 210.17)" font-size="67.49" fill="#f04a45" font-family="Arial-Black, Arial" font-weight="800" style="isolation:isolate">e</text><text transform="translate(252.05 210.17)" font-size="67.49" fill="#f04a45" font-family="Arial-Black, Arial" font-weight="800" style="isolation:isolate">r</text></g><path d="M12.91,232.51l.17-1.85h9.33l-.17,1.85ZM22.43,226a5.58,5.58,0,0,0-1.38-.21,3.16,3.16,0,0,0-1.24.25,2,2,0,0,0-.95.87,4.12,4.12,0,0,0-.47,1.81l-1.33,16.51H14.74l1.33-16.83a5.18,5.18,0,0,1,1.45-3.49,4.58,4.58,0,0,1,3.19-1.14,6.16,6.16,0,0,1,.95.07c.32,0,.65.11.95.18Z" fill="#231f20"/><path d="M24,245.23l.83-10.49c.07-.67.1-1.35.12-2s0-1.36,0-2h2.2l.06,3.59-.35-.5a4.94,4.94,0,0,1,2-2.54,5.57,5.57,0,0,1,3.1-.91,4,4,0,0,1,.71.05,2.88,2.88,0,0,1,.59.13L33,232.6c-.23-.07-.47-.13-.7-.18a4.66,4.66,0,0,0-.8-.06,4.26,4.26,0,0,0-2.47.66,4.18,4.18,0,0,0-1.46,1.7,5.49,5.49,0,0,0-.55,2.18l-.69,8.32H24Z" fill="#231f20"/><path d="M40.91,245.43a7.06,7.06,0,0,1-3.58-.87A5.86,5.86,0,0,1,35,242.11a8.23,8.23,0,0,1-.8-3.73,9.63,9.63,0,0,1,.88-4.27,6.71,6.71,0,0,1,2.47-2.81,6.86,6.86,0,0,1,3.7-1,7,7,0,0,1,3.56.88,6,6,0,0,1,2.33,2.47,7.91,7.91,0,0,1,.83,3.72,9.63,9.63,0,0,1-.88,4.27,6.64,6.64,0,0,1-2.48,2.8A6.72,6.72,0,0,1,40.91,245.43Zm.06-1.92a4.19,4.19,0,0,0,2.53-.76,4.78,4.78,0,0,0,1.58-2.16,9.13,9.13,0,0,0,.54-3.3,5.53,5.53,0,0,0-1.15-3.73,4,4,0,0,0-3.2-1.31,4.23,4.23,0,0,0-2.54.76,4.77,4.77,0,0,0-1.6,2.18,9.11,9.11,0,0,0-.54,3.29,5.54,5.54,0,0,0,1.12,3.75A4.06,4.06,0,0,0,41,243.51Z" fill="#231f20"/><path d="M51.34,245.23l.84-10.49a32.62,32.62,0,0,0,.08-4.08h2.2l.06,3-.35.14a5,5,0,0,1,2.06-2.6,6.1,6.1,0,0,1,3.33-.91,4.94,4.94,0,0,1,3.92,1.48,5.72,5.72,0,0,1,1.06,4.35l-.73,9.09H61.5l.72-8.95a4.26,4.26,0,0,0-.65-3,3.13,3.13,0,0,0-2.57-1,4.42,4.42,0,0,0-3.29,1.23,5.3,5.3,0,0,0-1.37,3.37l-.66,8.34H51.34Z" fill="#231f20"/><path d="M67.54,232.51l.14-1.85H77l-.17,1.85Zm8.4,10.66-.15,2c-.31.09-.63.16-1,.22a6.8,6.8,0,0,1-1,.07,4.08,4.08,0,0,1-3.13-1.16,4.42,4.42,0,0,1-.93-3.48l1.08-13.87,2.4-.84-1.13,14.4a3.85,3.85,0,0,0,.19,1.82,1.54,1.54,0,0,0,.83.88,3.14,3.14,0,0,0,1.3.25,4.59,4.59,0,0,0,.76-.06A3.66,3.66,0,0,0,75.94,243.17Z" fill="#231f20"/><path d="M99,243.55a6.59,6.59,0,0,1-2.46,1.37,9.84,9.84,0,0,1-3.11.51,7.4,7.4,0,0,1-3.69-.87,5.91,5.91,0,0,1-2.38-2.45,8,8,0,0,1-.83-3.73,9.6,9.6,0,0,1,.88-4.23,6.68,6.68,0,0,1,2.49-2.83,7,7,0,0,1,3.78-1,6.59,6.59,0,0,1,3.43.86,5,5,0,0,1,2.11,2.55,8.55,8.55,0,0,1,.4,4.16h-11l.08-1.53h9.71l-.79.61a4.48,4.48,0,0,0-.81-3.59,3.71,3.71,0,0,0-3-1.25,4.33,4.33,0,0,0-3.65,1.67,7.55,7.55,0,0,0-1.27,4.68,5.47,5.47,0,0,0,1.17,3.7,4.33,4.33,0,0,0,3.46,1.36,8,8,0,0,0,2.51-.4,6.81,6.81,0,0,0,2.27-1.27Z" fill="#231f20"/><path d="M102.9,245.23l.83-10.49a30.81,30.81,0,0,0,.09-4.08H106l.06,3-.35.14a5,5,0,0,1,2.06-2.6,6.1,6.1,0,0,1,3.33-.91,4.94,4.94,0,0,1,3.92,1.48,5.72,5.72,0,0,1,1.06,4.35l-.73,9.09h-2.31l.72-8.95a4.26,4.26,0,0,0-.65-3,3.13,3.13,0,0,0-2.57-1,4.42,4.42,0,0,0-3.29,1.23,5.3,5.3,0,0,0-1.37,3.37l-.67,8.34H102.9Z" fill="#231f20"/><path d="M126,245.43a6.07,6.07,0,0,1-3.23-.86,5.58,5.58,0,0,1-2.17-2.43,8.51,8.51,0,0,1-.77-3.73,9.82,9.82,0,0,1,.86-4.26,6.67,6.67,0,0,1,2.39-2.83,6.41,6.41,0,0,1,3.59-1,5.61,5.61,0,0,1,3.34,1,4.89,4.89,0,0,1,1.89,2.74l-.4.37.81-10.49h2.31L133,245.22h-2.29l.29-3.91.29.64a4.53,4.53,0,0,1-1.13,1.89,5,5,0,0,1-1.85,1.18A6.41,6.41,0,0,1,126,245.43Zm.6-1.92a4,4,0,0,0,3.41-1.66,7.35,7.35,0,0,0,1.24-4.5,5.57,5.57,0,0,0-1.15-3.8,4.54,4.54,0,0,0-6.67.33,7.24,7.24,0,0,0-1.24,4.48,5.62,5.62,0,0,0,1.16,3.81A4,4,0,0,0,126.62,243.51Z" fill="#231f20"/><path d="M151.53,245.43a6.07,6.07,0,0,1-3.23-.86,5.58,5.58,0,0,1-2.17-2.43,8.51,8.51,0,0,1-.77-3.73,9.82,9.82,0,0,1,.86-4.26,6.67,6.67,0,0,1,2.39-2.83,6.41,6.41,0,0,1,3.59-1,5.61,5.61,0,0,1,3.34,1,4.89,4.89,0,0,1,1.89,2.74l-.4.37.81-10.49h2.32l-1.69,21.32h-2.29l.29-3.91.29.64a4.53,4.53,0,0,1-1.13,1.89,5,5,0,0,1-1.85,1.18A6.24,6.24,0,0,1,151.53,245.43Zm.61-1.92a4,4,0,0,0,3.41-1.66,7.35,7.35,0,0,0,1.24-4.5,5.57,5.57,0,0,0-1.15-3.8,4.54,4.54,0,0,0-6.67.33,7.24,7.24,0,0,0-1.24,4.48,5.62,5.62,0,0,0,1.16,3.81A4.06,4.06,0,0,0,152.14,243.51Z" fill="#231f20"/><path d="M175.49,243.55a6.56,6.56,0,0,1-2.47,1.37,9.73,9.73,0,0,1-3.1.51,7.4,7.4,0,0,1-3.69-.87,5.91,5.91,0,0,1-2.38-2.45,7.86,7.86,0,0,1-.83-3.73,9.6,9.6,0,0,1,.88-4.23,6.68,6.68,0,0,1,2.49-2.83,7,7,0,0,1,3.78-1,6.59,6.59,0,0,1,3.43.86,5,5,0,0,1,2.11,2.55,8.55,8.55,0,0,1,.4,4.16h-11l.08-1.53h9.71l-.79.61a4.52,4.52,0,0,0-.81-3.59,3.71,3.71,0,0,0-3-1.25,4.33,4.33,0,0,0-3.65,1.67,7.55,7.55,0,0,0-1.27,4.68,5.47,5.47,0,0,0,1.17,3.7,4.32,4.32,0,0,0,3.46,1.36,8,8,0,0,0,2.51-.4,6.91,6.91,0,0,0,2.27-1.27Z" fill="#231f20"/><path d="M183.5,245.23l-5.1-14.54h2.38l4.32,12.86h-.7l6.34-12.86h2.4l-7.41,14.54Z" fill="#231f20"/><path d="M206.85,243.55a6.59,6.59,0,0,1-2.46,1.37,9.78,9.78,0,0,1-3.1.51,7.47,7.47,0,0,1-3.7-.87,6,6,0,0,1-2.38-2.45,8.11,8.11,0,0,1-.82-3.73,9.6,9.6,0,0,1,.88-4.23,6.61,6.61,0,0,1,2.49-2.83,7,7,0,0,1,3.77-1,6.6,6.6,0,0,1,3.44.86,5.11,5.11,0,0,1,2.11,2.55,8.56,8.56,0,0,1,.39,4.16h-11l.09-1.53h9.7l-.79.61a4.52,4.52,0,0,0-.8-3.59,3.74,3.74,0,0,0-3-1.25,4.32,4.32,0,0,0-3.65,1.67,7.55,7.55,0,0,0-1.28,4.68,5.52,5.52,0,0,0,1.17,3.7,4.35,4.35,0,0,0,3.47,1.36,7.93,7.93,0,0,0,2.5-.4,7,7,0,0,0,2.28-1.27Z" fill="#231f20"/><path d="M210.73,245.23l1.71-21.32h2.35l-1.71,21.32Z" fill="#231f20"/><path d="M224.36,245.43a7.06,7.06,0,0,1-3.58-.87,5.8,5.8,0,0,1-2.33-2.45,8.11,8.11,0,0,1-.81-3.73,9.63,9.63,0,0,1,.88-4.27A6.78,6.78,0,0,1,221,231.3a6.92,6.92,0,0,1,3.71-1,7,7,0,0,1,3.56.88,6,6,0,0,1,2.32,2.47,7.91,7.91,0,0,1,.83,3.72,9.77,9.77,0,0,1-.88,4.27,6.69,6.69,0,0,1-2.47,2.8A6.81,6.81,0,0,1,224.36,245.43Zm0-1.92a4.16,4.16,0,0,0,2.52-.76,4.78,4.78,0,0,0,1.58-2.16,8.92,8.92,0,0,0,.54-3.3,5.48,5.48,0,0,0-1.15-3.73,4,4,0,0,0-3.19-1.31,4.26,4.26,0,0,0-2.55.76,4.76,4.76,0,0,0-1.59,2.18,8.89,8.89,0,0,0-.55,3.29,5.49,5.49,0,0,0,1.13,3.75A4.05,4.05,0,0,0,224.41,243.51Z" fill="#231f20"/><path d="M234.29,251.48l1.33-16.74a30.81,30.81,0,0,0,.08-4.08h2.21l.06,3-.32.14a4.85,4.85,0,0,1,1.16-1.88,5.19,5.19,0,0,1,1.85-1.2,6.31,6.31,0,0,1,5.49.44,5.86,5.86,0,0,1,2.19,2.45,8.23,8.23,0,0,1,.79,3.73,9.67,9.67,0,0,1-.87,4.24,6.8,6.8,0,0,1-2.4,2.82,6.33,6.33,0,0,1-3.59,1,5.83,5.83,0,0,1-3.34-1,4.53,4.53,0,0,1-1.86-2.69l.37-.44-.78,10.14h-2.37Zm7.79-8a4,4,0,0,0,3.4-1.65,7.42,7.42,0,0,0,1.23-4.52,5.52,5.52,0,0,0-1.16-3.77,4,4,0,0,0-3.22-1.33,4.09,4.09,0,0,0-3.43,1.65,7.29,7.29,0,0,0-1.26,4.52,5.55,5.55,0,0,0,1.15,3.8A4.14,4.14,0,0,0,242.08,243.51Z" fill="#231f20"/><path d="M264.61,243.55a6.56,6.56,0,0,1-2.47,1.37,9.73,9.73,0,0,1-3.1.51,7.4,7.4,0,0,1-3.69-.87,5.91,5.91,0,0,1-2.38-2.45,8,8,0,0,1-.83-3.73,9.75,9.75,0,0,1,.88-4.23,6.68,6.68,0,0,1,2.49-2.83,7,7,0,0,1,3.78-1,6.59,6.59,0,0,1,3.43.86,4.91,4.91,0,0,1,2.11,2.55,8.67,8.67,0,0,1,.4,4.16h-11l.08-1.53H264l-.79.61a4.48,4.48,0,0,0-.81-3.59,3.71,3.71,0,0,0-3-1.25,4.33,4.33,0,0,0-3.65,1.67,7.55,7.55,0,0,0-1.27,4.68,5.47,5.47,0,0,0,1.17,3.7,4.32,4.32,0,0,0,3.46,1.36,8,8,0,0,0,2.51-.4,6.91,6.91,0,0,0,2.27-1.27Z" fill="#231f20"/><path d="M268.5,245.23l.83-10.49c.07-.67.1-1.35.12-2s0-1.36,0-2h2.2l.06,3.59-.35-.5a4.94,4.94,0,0,1,2-2.54,5.57,5.57,0,0,1,3.1-.91,4,4,0,0,1,.71.05,2.88,2.88,0,0,1,.59.13l-.2,2.11c-.23-.07-.47-.13-.7-.18a4.66,4.66,0,0,0-.8-.06,4.26,4.26,0,0,0-2.47.66,4.18,4.18,0,0,0-1.46,1.7,5.66,5.66,0,0,0-.55,2.18l-.69,8.32H268.5Z" fill="#231f20"/></svg>